# xmcd CD database file
#
# Track frame offsets:
#	150
#	21492
#	48425
#
# Disc length: 928 seconds
#
# Revision: 0
# Processed by: cddbd v1.5.1PL0 Copyright (c) Steve Scherf et al.
# Submitted via: CDex 1.51
#
DISCID=21039e03
DTITLE=Bluem of Youth - Time goes by...
DYEAR=1997
DGENRE=J-POP
TTITLE0=Time goes by...
TTITLE1=線路沿いの恋(new ver.)
TTITLE2=Time goes by...(inst)
EXTD=YEAR: 1997
EXTT0=
EXTT1=
EXTT2=
PLAYORDER=
